<svg xmlns="http://www.w3.org/2000/svg" xmlns:xlink="http://www.w3.org/1999/xlink">
<defs>
<symbol viewBox="0 0 24 24" id="palette-outline"><path fill="currentColor" d="M11.962 21q-1.839 0-3.471-.71q-1.633-.711-2.851-1.93T3.71 15.5T3 12q0-1.883.726-3.525t1.979-2.858t2.94-1.916T12.238 3q1.75 0 3.332.591q1.583.592 2.786 1.64q1.203 1.05 1.923 2.5t.72 3.165q0 2.318-1.336 3.71T16 16h-1.773q-.629 0-1.053.433t-.424 1.044q0 .627.375 1.064t.375 1.009q0 .73-.409 1.09q-.408.36-1.13.36M6.5 12.5q.42 0 .71-.29t.29-.71t-.29-.71t-.71-.29t-.71.29t-.29.71t.29.71t.71.29m3-4q.42 0 .71-.29t.29-.71t-.29-.71t-.71-.29t-.71.29t-.29.71t.29.71t.71.29m5 0q.42 0 .71-.29t.29-.71t-.29-.71t-.71-.29t-.71.29t-.29.71t.29.71t.71.29m3 4q.42 0 .71-.29t.29-.71t-.29-.71t-.71-.29t-.71.29t-.29.71t.29.71t.71.29M11.962 20q.263 0 .4-.115q.138-.116.138-.335q0-.35-.375-.748t-.375-1.31q0-1.088.725-1.79T14.25 15H16q1.88 0 2.94-1.107T20 10.896q0-3.044-2.341-4.97T12.239 4Q8.78 4 6.39 6.325T4 12q0 3.325 2.338 5.663T11.962 20"></path></symbol>
<symbol viewBox="0 0 24 24" id="airwave"><path fill="currentColor" d="M18.404 8.88q-.595.59-1.366.897t-1.569.306t-1.561-.3t-1.362-.902l-1.875-1.875q-.446-.452-1.012-.678q-.565-.226-1.16-.226t-1.16.226t-1.01.678L4.8 8.516l-.713-.714l1.51-1.529q.602-.598 1.36-.897q.76-.299 1.54-.299q.782 0 1.53.299t1.352.897l1.875 1.875q.474.48 1.037.704q.563.225 1.178.225q.616 0 1.17-.226q.555-.226 1.032-.703l1.529-1.51l.714.714zm0 4.424q-.6.598-1.365.897t-1.564.299t-1.564-.299t-1.365-.897l-1.875-1.875q-.446-.452-1.011-.678q-.566-.226-1.161-.226t-1.16.226q-.564.226-1.01.678L4.8 12.939l-.713-.689l1.51-1.554q.602-.598 1.36-.897q.76-.299 1.54-.299q.782 0 1.53.299t1.352.897l1.875 1.875q.468.48 1.025.704q.556.225 1.171.225t1.18-.226t1.041-.703l1.529-1.51l.713.714zm-.025 4.423q-.599.598-1.352.897t-1.552.299t-1.564-.308q-.767-.31-1.365-.907l-1.9-1.856q-.446-.452-1.012-.678q-.565-.226-1.16-.226t-1.16.226t-1.01.678l-1.529 1.51l-.688-.689l1.51-1.554q.598-.598 1.353-.897q.754-.299 1.53-.299q.787 0 1.54.299q.752.3 1.359.897l1.875 1.875q.477.477 1.032.703t1.17.226t1.178-.225t1.037-.704l1.529-1.51l.689.714z"></path></symbol>
<symbol viewBox="0 0 24 24" id="gradient"><path fill="currentColor" d="M5.616 20q-.691 0-1.153-.462T4 18.384V5.616q0-.691.463-1.153T5.616 4h12.769q.69 0 1.153.463T20 5.616v12.769q0 .69-.462 1.153T18.384 20zM11 11v2h2v-2zm-4 0v2h2v-2zm2 2v2h2v-2zm4 0v2h2v-2zm-8 0v2h2v-2zm10-2v2h2v2h2v-2h-2v-2zm-8 4v2H5v1.385q0 .25.183.432t.433.183H7v-2h2v2h2v-2h2v2h2v-2h2v2h1.385q.25 0 .432-.183t.183-.433V17h-2v-2h-2v2h-2v-2h-2v2H9v-2zm12-4v2zm0 4v2z"></path></symbol>



<symbol xmlns="http://www.w3.org/2000/svg" viewBox="0 0 24 24" id="location-on-outline"><path fill="currentColor" d="M12.004 11.73q.667 0 1.14-.475t.472-1.143t-.476-1.14t-1.143-.472t-1.14.476t-.472 1.143t.475 1.14t1.144.472M12 19.677q2.82-2.454 4.458-4.991t1.638-4.39q0-2.744-1.737-4.53Q14.62 3.981 12 3.981T7.641 5.766t-1.737 4.53q0 1.852 1.638 4.39T12 19.677m0 1.342q-3.525-3.117-5.31-5.814q-1.786-2.697-1.786-4.909q0-3.173 2.066-5.234Q9.037 3 12 3t5.03 2.062q2.066 2.061 2.066 5.234q0 2.212-1.785 4.909q-1.786 2.697-5.311 5.814m0-10.903"/></symbol>
<symbol xmlns="http://www.w3.org/2000/svg" viewBox="0 0 24 24" id="mail-outline-rounded"><path fill="currentColor" d="M4.616 19q-.691 0-1.153-.462T3 17.384V6.616q0-.691.463-1.153T4.615 5h14.77q.69 0 1.152.463T21 6.616v10.769q0 .69-.463 1.153T19.385 19zM20 6.885l-7.552 4.944q-.106.055-.214.093q-.109.037-.234.037t-.234-.037t-.214-.093L4 6.884v10.5q0 .27.173.443t.443.173h14.769q.269 0 .442-.173t.173-.443zM12 11l7.692-5H4.308zM4 6.885v.211v-.811v.034V6v.32v-.052v.828zV18z"/></symbol>
<symbol xmlns="http://www.w3.org/2000/svg" viewBox="0 0 24 24" id="nest-clock-farsight-analog-outline"><path fill="currentColor" d="M14.935 16.223L11.5 12.789V7.923h1v4.464l3.123 3.123zM11.5 6V4h1v2zm6.5 6.5v-1h2v1zM11.5 20v-2h1v2zM4 12.5v-1h2v1zm8.003 8.5q-1.867 0-3.51-.708q-1.643-.709-2.859-1.924t-1.925-2.856T3 12.003t.709-3.51Q4.417 6.85 5.63 5.634t2.857-1.925T11.997 3t3.51.709q1.643.708 2.859 1.922t1.925 2.857t.709 3.509t-.708 3.51t-1.924 2.859t-2.856 1.925t-3.509.709M12 20q3.35 0 5.675-2.325T20 12t-2.325-5.675T12 4T6.325 6.325T4 12t2.325 5.675T12 20m0-8"/></symbol>



<symbol xmlns="http://www.w3.org/2000/svg" viewBox="0 0 24 24" id="instagram"><g fill="none" stroke="currentColor" stroke-linecap="round" stroke-linejoin="round" stroke-width="2"><rect width="20" height="20" x="2" y="2" rx="5" ry="5"/><path d="M16 11.37A4 4 0 1 1 12.63 8A4 4 0 0 1 16 11.37m1.5-4.87h.01"/></g></symbol>


<symbol xmlns="http://www.w3.org/2000/svg" viewBox="0 0 48 48" id="tiktok"><path fill="none" stroke="currentColor" stroke-linecap="round" stroke-linejoin="round" stroke-width="3" d="M17.045 20.667C10.564 21.117 5 25.736 5 32.815C5 39.545 10.393 45 17.045 45s12.046-5.455 12.046-12.185l-.348-15.19c3.027 2.336 7.862 3.748 12.336 3.974c.8.04 1.568-.323 1.755-1.103c.095-.397.166-.914.166-1.573s-.07-1.176-.166-1.573c-.187-.78-.956-1.118-1.754-1.198c-6.05-.605-11.747-5.5-12.561-11.28c-.104-.73-.513-1.405-1.228-1.591A8.8 8.8 0 0 0 25.076 3a8.8 8.8 0 0 0-2.218.281c-.713.186-1.139.856-1.156 1.594l-.642 27.94c0 2.243-1.797 4.062-4.015 4.062s-4.015-1.819-4.015-4.062c0-2.332 1.95-3.833 4.015-4.217"/></symbol>


<symbol xmlns="http://www.w3.org/2000/svg" viewBox="0 0 24 24" id="whatsapp"><g fill="none" stroke="currentColor" stroke-linecap="round" stroke-linejoin="round" stroke-width="2"><circle cx="9" cy="9" r="1"/><circle cx="15" cy="15" r="1"/><path d="M8 9a7 7 0 0 0 7 7m-9 5.2A11 11 0 1 0 2.8 18L2 22Z"/></g></symbol>

</defs>
</svg>