<svg xmlns="http://www.w3.org/2000/svg" xmlns:xlink="http://www.w3.org/1999/xlink">
    <defs>
        <symbol viewBox="0 0 24 24" id="arrow-down"><path fill="currentColor" d="m12 13.171l4.95-4.95l1.414 1.415L12 16L5.636 9.636L7.05 8.222z"/></symbol>

        <symbol xmlns="http://www.w3.org/2000/svg" viewBox="0 0 56 56" id="camera"><path fill="currentColor" d="M7.809 50.348H48.19c4.875 0 7.36-2.438 7.36-7.266V18.543c0-4.828-2.485-7.242-7.36-7.242h-5.484c-1.828 0-2.39-.375-3.445-1.547l-1.899-2.11c-1.148-1.288-2.343-1.992-4.781-1.992h-9.328c-2.414 0-3.61.704-4.781 1.992l-1.899 2.11c-1.031 1.148-1.617 1.547-3.445 1.547h-5.32c-4.875 0-7.36 2.414-7.36 7.242v24.539c0 4.828 2.485 7.266 7.36 7.266m.07-3.774c-2.32 0-3.656-1.242-3.656-3.68v-24.14c0-2.438 1.336-3.68 3.656-3.68h6.187c2.11 0 3.235-.398 4.407-1.71l1.851-2.063c1.336-1.5 2.016-1.875 4.102-1.875h6.984c2.086 0 2.766.375 4.102 1.875l1.851 2.062c1.172 1.313 2.297 1.711 4.407 1.711h6.351c2.32 0 3.657 1.242 3.657 3.68v24.14c0 2.438-1.336 3.68-3.657 3.68Zm20.11-3.726a12.76 12.76 0 0 0 12.796-12.82c0-7.126-5.672-12.82-12.797-12.82c-7.078 0-12.773 5.694-12.773 12.82c0 7.124 5.695 12.82 12.773 12.82m16.851-18.54c1.594 0 2.906-1.288 2.906-2.882a2.906 2.906 0 1 0-5.812 0c0 1.594 1.312 2.883 2.906 2.883m-16.85 14.977c-5.086 0-9.234-4.125-9.234-9.258s4.125-9.257 9.234-9.257a9.247 9.247 0 0 1 9.258 9.257a9.247 9.247 0 0 1-9.258 9.258"/></symbol>

        <symbol xmlns="http://www.w3.org/2000/svg" viewBox="0 0 56 56" id="moon"><path fill="currentColor" d="M41.242 36.121c-12.937 0-20.953-7.781-20.953-20.273c0-3.563.61-6.703 1.477-8.391c.351-.68.398-1.008.398-1.476c0-.774-.703-1.688-1.687-1.688c-.188 0-.633.07-1.313.328c-8.648 3.516-14.742 12.656-14.742 22.5c0 14.227 10.313 24.586 24.539 24.586c10.219 0 18.469-5.344 22.29-14.11c.257-.609.327-1.124.327-1.382c0-.961-.843-1.617-1.547-1.617c-.398 0-.656.023-1.218.234c-1.922.773-4.782 1.29-7.57 1.29m-33.14-9.164c0-7.289 3.773-14.227 9.867-18.047c-.75 2.18-1.172 4.594-1.172 7.266c0 14.648 8.93 23.367 23.906 23.367c2.39 0 4.453-.281 6.375-.96c-3.562 5.882-10.43 9.468-17.953 9.468c-12.164 0-21.023-8.86-21.023-21.094"/></symbol>

        <symbol xmlns="http://www.w3.org/2000/svg" viewBox="0 0 24 24" id="pencil"><g fill="none" stroke="currentColor" stroke-width="2"><path stroke-linecap="round" stroke-linejoin="round" d="M4.333 16.048L16.57 3.81a2.56 2.56 0 0 1 3.62 3.619L7.951 19.667a2 2 0 0 1-1.022.547L3 21l.786-3.93a2 2 0 0 1 .547-1.022"/><path d="m14.5 6.5l3 3"/></g></symbol>

        <symbol xmlns="http://www.w3.org/2000/svg" viewBox="0 0 24 24" id="brush-line"><path fill="currentColor" d="m15.457 9.675l-.143-.142a5.5 5.5 0 0 0-2.39-1.349c-2.907-.779-5.699.869-6.492 3.83c-.043.16-.066.34-.104.791c-.154 1.87-.594 3.265-1.8 4.68c2.26.888 4.938 1.514 6.974 1.514a5.505 5.505 0 0 0 5.31-4.079a5.5 5.5 0 0 0-1.356-5.245m-2.168-3.462l4.939-3.842a1 1 0 0 1 1.32.083l2.995 2.994a1 1 0 0 1 .082 1.32l-3.84 4.939a7.505 7.505 0 0 1-7.283 9.292C8 20.999 3.5 19.497 1 17.997c3.98-3 3.047-4.81 3.5-6.5c1.058-3.95 4.842-6.258 8.789-5.284M16.7 8.092q.098.095.194.193L18.03 9.42l2.475-3.182l-1.746-1.746l-3.182 2.475z"/></symbol>

        <symbol xmlns="http://www.w3.org/2000/svg" viewBox="0 0 24 24" id="palette"><g fill="none" stroke="currentColor" stroke-linecap="round" stroke-linejoin="round" stroke-width="2"><path d="M12 21a9 9 0 0 1 0-18c4.97 0 9 3.582 9 8c0 1.06-.474 2.078-1.318 2.828S17.693 15 16.5 15H14a2 2 0 0 0-1 3.75A1.3 1.3 0 0 1 12 21"/><path d="M7.5 10.5a1 1 0 1 0 2 0a1 1 0 1 0-2 0m4-3a1 1 0 1 0 2 0a1 1 0 1 0-2 0m4 3a1 1 0 1 0 2 0a1 1 0 1 0-2 0"/></g></symbol>

        <symbol xmlns="http://www.w3.org/2000/svg" viewBox="0 0 48 48" id="refresh"><g fill="none" stroke="currentColor" stroke-width="4"><circle cx="24" cy="24" r="20"/><path stroke-linecap="round" stroke-linejoin="round" d="M31 5.26C23.407 8.096 18 15.416 18 24s5.407 15.903 13 18.74M37 9L18 22m23-8L19 29m24-9L22 35m21-7L26 40"/></g></symbol>

        <symbol xmlns="http://www.w3.org/2000/svg" viewBox="0 0 48 48" id="star"><path fill="currentColor" stroke="currentColor" stroke-linejoin="round" stroke-width="4" d="m23.999 5l-6.113 12.478L4 19.49l10.059 9.834L11.654 43L24 36.42L36.345 43L33.96 29.325L44 19.491l-13.809-2.013z"/></symbol>

        <symbol xmlns="http://www.w3.org/2000/svg" viewBox="0 0 24 24" id="arrow-right"><path fill="none" stroke="currentColor" stroke-linecap="round" stroke-linejoin="round" stroke-width="1.5" d="M3 12h18m0 0l-8.5-8.5M21 12l-8.5 8.5"/></symbol>

        <symbol xmlns="http://www.w3.org/2000/svg" viewBox="0 0 24 24" id="category"><path fill="currentColor" d="M6.5 11L12 2l5.5 9zm11 11q-1.875 0-3.187-1.312T13 17.5t1.313-3.187T17.5 13t3.188 1.313T22 17.5t-1.312 3.188T17.5 22M3 21.5v-8h8v8z"/></symbol>

        <symbol xmlns="http://www.w3.org/2000/svg" viewBox="0 0 512 512" id="body"><circle cx="256" cy="56" r="56" fill="currentColor"/><path fill="currentColor" d="M437 128H75a27 27 0 0 0 0 54h101.88c6.91 0 15 3.09 19.58 15c5.35 13.83 2.73 40.54-.57 61.23l-4.32 24.45a.42.42 0 0 1-.12.35l-34.6 196.81A27.43 27.43 0 0 0 179 511.58a27.06 27.06 0 0 0 31.42-22.29l23.91-136.8S242 320 256 320c14.23 0 21.74 32.49 21.74 32.49l23.91 136.92a27.24 27.24 0 1 0 53.62-9.6L320.66 283a.45.45 0 0 0-.11-.35l-4.33-24.45c-3.3-20.69-5.92-47.4-.57-61.23c4.56-11.88 12.91-15 19.28-15H437a27 27 0 0 0 0-54Z"/></symbol>

        <symbol xmlns="http://www.w3.org/2000/svg" viewBox="0 0 24 24" id="certificate"><g fill="none" fill-rule="evenodd"><path d="m12.593 23.258l-.011.002l-.071.035l-.02.004l-.014-.004l-.071-.035q-.016-.005-.024.005l-.004.01l-.017.428l.005.02l.01.013l.104.074l.015.004l.012-.004l.104-.074l.012-.016l.004-.017l-.017-.427q-.004-.016-.017-.018m.265-.113l-.013.002l-.185.093l-.01.01l-.003.011l.018.43l.005.012l.008.007l.201.093q.019.005.029-.008l.004-.014l-.034-.614q-.005-.018-.02-.022m-.715.002a.02.02 0 0 0-.027.006l-.006.014l-.034.614q.001.018.017.024l.015-.002l.201-.093l.01-.008l.004-.011l.017-.43l-.003-.012l-.01-.01z"/><path fill="currentColor" d="M10.586 2.1a2 2 0 0 1 2.7-.116l.128.117L15.314 4H18a2 2 0 0 1 1.994 1.85L20 6v2.686l1.9 1.9a2 2 0 0 1 .116 2.701l-.117.127l-1.9 1.9V18a2 2 0 0 1-1.85 1.995L18 20h-2.685l-1.9 1.9a2 2 0 0 1-2.701.116l-.127-.116l-1.9-1.9H6a2 2 0 0 1-1.995-1.85L4 18v-2.686l-1.9-1.9a2 2 0 0 1-.116-2.701l.116-.127l1.9-1.9V6a2 2 0 0 1 1.85-1.994L6 4h2.686zm4.493 6.883l-4.244 4.244l-1.768-1.768a1 1 0 0 0-1.414 1.415l2.404 2.404a1.1 1.1 0 0 0 1.556 0l4.88-4.881a1 1 0 0 0-1.414-1.414"/></g></symbol>

        <symbol xmlns="http://www.w3.org/2000/svg" viewBox="0 0 512 512" id="people"><path fill="currentColor" d="M336 256c-20.56 0-40.44-9.18-56-25.84c-15.13-16.25-24.37-37.92-26-61c-1.74-24.62 5.77-47.26 21.14-63.76S312 80 336 80c23.83 0 45.38 9.06 60.7 25.52c15.47 16.62 23 39.22 21.26 63.63c-1.67 23.11-10.9 44.77-26 61C376.44 246.82 356.57 256 336 256m131.83 176H204.18a27.71 27.71 0 0 1-22-10.67a30.22 30.22 0 0 1-5.26-25.79c8.42-33.81 29.28-61.85 60.32-81.08C264.79 297.4 299.86 288 336 288c36.85 0 71 9 98.71 26.05c31.11 19.13 52 47.33 60.38 81.55a30.27 30.27 0 0 1-5.32 25.78A27.68 27.68 0 0 1 467.83 432M147 260c-35.19 0-66.13-32.72-69-72.93c-1.42-20.6 5-39.65 18-53.62c12.86-13.83 31-21.45 51-21.45s38 7.66 50.93 21.57c13.1 14.08 19.5 33.09 18 53.52c-2.87 40.2-33.8 72.91-68.93 72.91m65.66 31.45c-17.59-8.6-40.42-12.9-65.65-12.9c-29.46 0-58.07 7.68-80.57 21.62c-25.51 15.83-42.67 38.88-49.6 66.71a27.39 27.39 0 0 0 4.79 23.36A25.32 25.32 0 0 0 41.72 400h111a8 8 0 0 0 7.87-6.57c.11-.63.25-1.26.41-1.88c8.48-34.06 28.35-62.84 57.71-83.82a8 8 0 0 0-.63-13.39c-1.57-.92-3.37-1.89-5.42-2.89"/></symbol>

        <symbol xmlns="http://www.w3.org/2000/svg" viewBox="0 0 15 15" id="star-circle-solid"><path fill="currentColor" fill-rule="evenodd" d="M0 7.5a7.5 7.5 0 1 1 15 0a7.5 7.5 0 0 1-15 0m7.5-4a.5.5 0 0 1 .453.288L8.92 5.85l2.155.33a.5.5 0 0 1 .282.843L9.784 8.636l.373 2.284a.5.5 0 0 1-.736.518L7.5 10.376l-1.921 1.062a.5.5 0 0 1-.736-.519l.373-2.283l-1.574-1.613a.5.5 0 0 1 .283-.844l2.154-.329l.968-2.062A.5.5 0 0 1 7.5 3.5" clip-rule="evenodd"/></symbol>
    </defs>
</svg>