<svg xmlns="http://www.w3.org/2000/svg" xmlns:xlink="http://www.w3.org/1999/xlink">
    <defs>
        <symbol viewBox="0 0 24 24" id="arrow-down"><path fill="currentColor" d="m12 13.171l4.95-4.95l1.414 1.415L12 16L5.636 9.636L7.05 8.222z"/></symbol>



        <symbol xmlns="http://www.w3.org/2000/svg" viewBox="0 0 56 56" id="camera"><path fill="currentColor" d="M7.809 50.348H48.19c4.875 0 7.36-2.438 7.36-7.266V18.543c0-4.828-2.485-7.242-7.36-7.242h-5.484c-1.828 0-2.39-.375-3.445-1.547l-1.899-2.11c-1.148-1.288-2.343-1.992-4.781-1.992h-9.328c-2.414 0-3.61.704-4.781 1.992l-1.899 2.11c-1.031 1.148-1.617 1.547-3.445 1.547h-5.32c-4.875 0-7.36 2.414-7.36 7.242v24.539c0 4.828 2.485 7.266 7.36 7.266m.07-3.774c-2.32 0-3.656-1.242-3.656-3.68v-24.14c0-2.438 1.336-3.68 3.656-3.68h6.187c2.11 0 3.235-.398 4.407-1.71l1.851-2.063c1.336-1.5 2.016-1.875 4.102-1.875h6.984c2.086 0 2.766.375 4.102 1.875l1.851 2.062c1.172 1.313 2.297 1.711 4.407 1.711h6.351c2.32 0 3.657 1.242 3.657 3.68v24.14c0 2.438-1.336 3.68-3.657 3.68Zm20.11-3.726a12.76 12.76 0 0 0 12.796-12.82c0-7.126-5.672-12.82-12.797-12.82c-7.078 0-12.773 5.694-12.773 12.82c0 7.124 5.695 12.82 12.773 12.82m16.851-18.54c1.594 0 2.906-1.288 2.906-2.882a2.906 2.906 0 1 0-5.812 0c0 1.594 1.312 2.883 2.906 2.883m-16.85 14.977c-5.086 0-9.234-4.125-9.234-9.258s4.125-9.257 9.234-9.257a9.247 9.247 0 0 1 9.258 9.257a9.247 9.247 0 0 1-9.258 9.258"/></symbol>

        <symbol xmlns="http://www.w3.org/2000/svg" viewBox="0 0 56 56" id="moon"><path fill="currentColor" d="M41.242 36.121c-12.937 0-20.953-7.781-20.953-20.273c0-3.563.61-6.703 1.477-8.391c.351-.68.398-1.008.398-1.476c0-.774-.703-1.688-1.687-1.688c-.188 0-.633.07-1.313.328c-8.648 3.516-14.742 12.656-14.742 22.5c0 14.227 10.313 24.586 24.539 24.586c10.219 0 18.469-5.344 22.29-14.11c.257-.609.327-1.124.327-1.382c0-.961-.843-1.617-1.547-1.617c-.398 0-.656.023-1.218.234c-1.922.773-4.782 1.29-7.57 1.29m-33.14-9.164c0-7.289 3.773-14.227 9.867-18.047c-.75 2.18-1.172 4.594-1.172 7.266c0 14.648 8.93 23.367 23.906 23.367c2.39 0 4.453-.281 6.375-.96c-3.562 5.882-10.43 9.468-17.953 9.468c-12.164 0-21.023-8.86-21.023-21.094"/></symbol>

        <symbol xmlns="http://www.w3.org/2000/svg" viewBox="0 0 24 24" id="pencil"><g fill="none" stroke="currentColor" stroke-width="2"><path stroke-linecap="round" stroke-linejoin="round" d="M4.333 16.048L16.57 3.81a2.56 2.56 0 0 1 3.62 3.619L7.951 19.667a2 2 0 0 1-1.022.547L3 21l.786-3.93a2 2 0 0 1 .547-1.022"/><path d="m14.5 6.5l3 3"/></g></symbol>

        <symbol xmlns="http://www.w3.org/2000/svg" viewBox="0 0 24 24" id="brush-line"><path fill="currentColor" d="m15.457 9.675l-.143-.142a5.5 5.5 0 0 0-2.39-1.349c-2.907-.779-5.699.869-6.492 3.83c-.043.16-.066.34-.104.791c-.154 1.87-.594 3.265-1.8 4.68c2.26.888 4.938 1.514 6.974 1.514a5.505 5.505 0 0 0 5.31-4.079a5.5 5.5 0 0 0-1.356-5.245m-2.168-3.462l4.939-3.842a1 1 0 0 1 1.32.083l2.995 2.994a1 1 0 0 1 .082 1.32l-3.84 4.939a7.505 7.505 0 0 1-7.283 9.292C8 20.999 3.5 19.497 1 17.997c3.98-3 3.047-4.81 3.5-6.5c1.058-3.95 4.842-6.258 8.789-5.284M16.7 8.092q.098.095.194.193L18.03 9.42l2.475-3.182l-1.746-1.746l-3.182 2.475z"/></symbol>


        <symbol xmlns="http://www.w3.org/2000/svg" viewBox="0 0 24 24" id="palette"><g fill="none" stroke="currentColor" stroke-linecap="round" stroke-linejoin="round" stroke-width="2"><path d="M12 21a9 9 0 0 1 0-18c4.97 0 9 3.582 9 8c0 1.06-.474 2.078-1.318 2.828S17.693 15 16.5 15H14a2 2 0 0 0-1 3.75A1.3 1.3 0 0 1 12 21"/><path d="M7.5 10.5a1 1 0 1 0 2 0a1 1 0 1 0-2 0m4-3a1 1 0 1 0 2 0a1 1 0 1 0-2 0m4 3a1 1 0 1 0 2 0a1 1 0 1 0-2 0"/></g></symbol>

        <symbol xmlns="http://www.w3.org/2000/svg" viewBox="0 0 48 48" id="refresh"><g fill="none" stroke="currentColor" stroke-width="4"><circle cx="24" cy="24" r="20"/><path stroke-linecap="round" stroke-linejoin="round" d="M31 5.26C23.407 8.096 18 15.416 18 24s5.407 15.903 13 18.74M37 9L18 22m23-8L19 29m24-9L22 35m21-7L26 40"/></g></symbol>



    </defs>
</svg>